<svg width="193" height="195" viewBox="0 0 193 195" fill="none" xmlns="http://www.w3.org/2000/svg">
<g filter="url(#filter0_i_151_2067)">
<rect x="41.298" width="156.989" height="159.562" rx="78.4944" transform="rotate(15 41.298 0)" fill="url(#paint0_diamond_151_2067)" fill-opacity="0.9"/>
</g>
<rect x="42.0051" y="1.22474" width="154.989" height="157.562" rx="77.4944" transform="rotate(15 42.0051 1.22474)" stroke="url(#paint1_linear_151_2067)" stroke-width="2"/>
<g filter="url(#filter1_f_151_2067)">
<path fill-rule="evenodd" clip-rule="evenodd" d="M87.2489 61.0255L69.065 61.0255L69.065 72.2156C69.065 72.2156 73.4789 72.2167 76.0586 72.2167C78.4374 72.2167 80.2549 73.6155 80.2549 76.413C80.2549 79.2105 80.2551 119.074 80.2551 121.172C80.2551 123.27 77.269 125.368 75.3594 125.368C72.5617 125.369 64.8687 125.368 64.8687 125.368L64.8687 136.56L87.2488 136.56L87.2488 153.343L95.6413 153.343L95.6413 136.56L102.635 136.56L102.635 153.343L111.068 153.343L111.068 136.56C111.068 136.56 119.42 135.86 125.715 130.263C131.747 124.899 133.408 114.179 131.31 107.186C129.212 100.192 119.42 93.8951 119.42 93.8951C119.42 93.8951 123.617 92.496 125.715 88.9991C129.675 82.3982 129.413 74.6146 125.015 68.0177C120.617 61.4208 111.068 61.0255 111.068 61.0255L111.068 41.4432L102.635 41.4432L102.635 61.0255L95.6412 61.0255L95.6412 41.444L87.2487 41.4432L87.2489 61.0255ZM92.8438 101.591L92.8438 125.368C92.8438 125.368 108.689 127.235 114.525 122.572C119.394 118.681 119.646 112.01 117.322 106.486C114.137 98.9155 92.8438 101.591 92.8438 101.591ZM92.8438 90.4005L92.8438 72.2156C92.8438 72.2156 109.384 69.8597 113.126 75.0142C116.396 79.5198 115.923 84.8055 111.727 88.3024C106.659 92.5262 92.8438 90.4005 92.8438 90.4005Z" fill="#CD9A37"/>
</g>
<path fill-rule="evenodd" clip-rule="evenodd" d="M82.4816 58.6427L64.2978 58.6427L64.2978 69.8328C64.2978 69.8328 68.7116 69.8339 71.2914 69.8339C73.6702 69.8339 75.4876 71.2326 75.4876 74.0302C75.4876 76.8277 75.4879 116.691 75.4879 118.789C75.4879 120.887 72.5018 122.985 70.5922 122.986C67.7945 122.987 60.1015 122.986 60.1015 122.986L60.1015 134.177L82.4816 134.177L82.4816 150.96L90.8741 150.96L90.8741 134.177L97.8679 134.177L97.8679 150.96L106.301 150.96L106.301 134.177C106.301 134.177 114.653 133.477 120.947 127.88C126.979 122.516 128.641 111.797 126.542 104.803C124.444 97.809 114.653 91.5123 114.653 91.5123C114.653 91.5123 118.849 90.1131 120.947 86.6163C124.908 80.0154 124.646 72.2318 120.248 65.6349C115.85 59.038 106.301 58.6427 106.301 58.6427L106.301 39.0604L97.8678 39.0604L97.8678 58.6427L90.874 58.6427L90.874 39.0612L82.4814 39.0604L82.4816 58.6427ZM88.0766 99.2078L88.0766 122.986C88.0766 122.986 103.922 124.852 109.757 120.189C114.627 116.298 114.879 109.628 112.555 104.103C109.37 96.5327 88.0766 99.2078 88.0766 99.2078ZM88.0766 88.0177L88.0766 69.8328C88.0766 69.8328 104.617 67.4769 108.359 72.6314C111.629 77.137 111.156 82.4227 106.96 85.9196C101.891 90.1434 88.0766 88.0177 88.0766 88.0177Z" fill="#EBEBEB"/>
<defs>
<filter id="filter0_i_151_2067" x="17.6219" y="9.27851" width="158.886" height="167.856" filterUnits="userSpaceOnUse" color-interpolation-filters="sRGB">
<feFlood flood-opacity="0" result="BackgroundImageFix"/>
<feBlend mode="normal" in="SourceGraphic" in2="BackgroundImageFix" result="shape"/>
<feColorMatrix in="SourceAlpha" type="matrix" values="0 0 0 0 0 0 0 0 0 0 0 0 0 0 0 0 0 0 127 0" result="hardAlpha"/>
<feOffset dx="1.1918" dy="-11.918"/>
<feGaussianBlur stdDeviation="4.17129"/>
<feComposite in2="hardAlpha" operator="arithmetic" k2="-1" k3="1"/>
<feColorMatrix type="matrix" values="0 0 0 0 0.179167 0 0 0 0 0 0 0 0 0 0 0 0 0 0.25 0"/>
<feBlend mode="normal" in2="shape" result="effect1_innerShadow_151_2067"/>
</filter>
<filter id="filter1_f_151_2067" x="62.4851" y="39.0598" width="72.0735" height="116.666" filterUnits="userSpaceOnUse" color-interpolation-filters="sRGB">
<feFlood flood-opacity="0" result="BackgroundImageFix"/>
<feBlend mode="normal" in="SourceGraphic" in2="BackgroundImageFix" result="shape"/>
<feGaussianBlur stdDeviation="1.1918" result="effect1_foregroundBlur_151_2067"/>
</filter>
<radialGradient id="paint0_diamond_151_2067" cx="0" cy="0" r="1" gradientUnits="userSpaceOnUse" gradientTransform="translate(119.792 79.7812) rotate(92.8918) scale(148.878 146.477)">
<stop stop-color="#FFDD64"/>
<stop offset="1" stop-color="#EDB21A"/>
</radialGradient>
<linearGradient id="paint1_linear_151_2067" x1="119.792" y1="0" x2="119.792" y2="159.562" gradientUnits="userSpaceOnUse">
<stop stop-color="#FAFAFA"/>
<stop offset="0.90625" stop-color="#9D8328"/>
</linearGradient>
</defs>
</svg>
